<?xml version="1.0" standalone="no"?>
<!DOCTYPE svg PUBLIC "-//W3C//DTD SVG 20010904//EN"
 "http://www.w3.org/TR/2001/REC-SVG-20010904/DTD/svg10.dtd">
<svg version="1.0" xmlns="http://www.w3.org/2000/svg"
 width="155.000000pt" height="108.000000pt" viewBox="0 0 155.000000 108.000000"
 preserveAspectRatio="xMidYMid meet">

<g transform="translate(0.000000,108.000000) scale(0.100000,-0.100000)"
fill="#000000" stroke="none">
<path d="M0 840 l0 -240 265 0 265 0 0 25 0 25 240 0 240 0 0 -25 0 -25 270 0
270 0 0 240 0 240 -775 0 -775 0 0 -240z m180 80 l0 -50 50 0 50 0 0 50 0 50
35 0 36 0 -3 -132 -3 -133 -32 -3 -33 -3 0 55 0 56 -49 0 -50 0 -3 -52 c-3
-52 -4 -53 -35 -56 l-33 -3 0 135 0 136 35 0 35 0 0 -50z m428 30 c80 -49 78
-173 -3 -226 -33 -21 -112 -21 -154 1 -85 44 -76 198 14 235 38 16 109 11 143
-10z m174 -82 l3 -103 40 0 40 0 3 103 3 102 39 0 40 0 0 -85 c0 -127 -23
-170 -95 -175 -70 -5 -96 1 -120 25 -23 23 -25 31 -25 130 l0 105 35 0 34 0 3
-102z m396 96 c16 -5 22 -14 22 -36 0 -25 -3 -29 -17 -22 -10 4 -40 8 -68 9
-66 0 -69 -24 -5 -43 69 -21 90 -34 96 -59 17 -66 -32 -106 -128 -105 -32 0
-65 5 -75 10 -22 13 -25 65 -3 58 73 -25 102 -30 117 -20 40 25 30 35 -67 65
-49 15 -68 46 -57 91 12 45 108 72 185 52z m262 -19 c0 -24 -3 -25 -60 -25
-57 0 -60 -1 -60 -25 0 -24 3 -25 60 -25 l60 0 0 -30 0 -30 -60 0 c-57 0 -60
-1 -60 -25 0 -24 3 -25 60 -25 l60 0 0 -30 0 -31 -92 3 -93 3 -3 133 -3 132
96 0 c95 0 95 0 95 -25z"/>
<path d="M488 903 c-24 -28 -30 -70 -14 -107 18 -44 50 -55 85 -29 32 25 41
91 16 129 -19 29 -65 32 -87 7z"/>
<path d="M688 595 c-17 -37 3 -75 40 -75 35 0 52 16 52 50 0 34 -17 50 -52 50
-21 0 -32 -7 -40 -25z m62 -4 c13 -26 3 -51 -21 -51 -14 0 -19 7 -19 29 0 25
5 32 27 40 1 1 7 -8 13 -18z"/>
<path d="M800 570 c0 -27 5 -50 10 -50 6 0 10 9 10 20 0 13 7 20 19 20 11 0
23 5 26 10 3 6 -3 10 -14 10 -11 0 -23 5 -26 10 -4 6 5 10 19 10 14 0 26 5 26
10 0 6 -16 10 -35 10 l-35 0 0 -50z"/>
<path d="M0 270 l0 -270 775 0 775 0 0 270 0 270 -270 0 -270 0 0 -25 0 -25
-240 0 -240 0 0 25 0 25 -265 0 -265 0 0 -270z m200 95 l0 -65 60 0 60 0 0 65
0 65 45 0 45 0 0 -160 0 -160 -45 0 -45 0 0 65 0 65 -60 0 -60 0 0 -65 0 -65
-45 0 -45 0 0 160 0 160 45 0 45 0 0 -65z m547 39 c52 -39 68 -70 68 -134 0
-99 -55 -152 -163 -158 -118 -6 -182 50 -182 158 0 68 27 115 80 143 48 25
158 20 197 -9z m352 11 c54 -27 66 -119 21 -160 -25 -22 -87 -44 -127 -45 -33
0 -33 0 -33 -50 l0 -50 -45 0 -45 0 0 160 0 160 100 0 c69 0 110 -5 129 -15z
m341 -15 l0 -30 -75 0 -75 0 0 -35 0 -35 75 0 75 0 0 -30 0 -30 -75 0 -75 0 0
-35 0 -35 75 0 75 0 0 -30 0 -30 -120 0 -120 0 0 160 0 160 120 0 120 0 0 -30z"/>
<path d="M584 349 c-14 -16 -19 -36 -19 -81 0 -51 4 -63 24 -79 61 -50 131 -6
131 81 0 65 -28 100 -79 100 -26 0 -44 -7 -57 -21z"/>
<path d="M962 323 l3 -48 35 3 c82 8 76 92 -6 92 l-35 0 3 -47z"/>
</g>
</svg>
